<svg id="Layer_1" data-name="Layer 1" xmlns="http://www.w3.org/2000/svg" xmlns:xlink="http://www.w3.org/1999/xlink" viewBox="0 0 32 32">
  <defs>
    <linearGradient id="linear-gradient" x1="16" y1="32" x2="16" gradientTransform="matrix(1, 0, 0, -1, 0, 32)" gradientUnits="userSpaceOnUse">
      <stop offset="0" stop-color="#2d66f5"/>
      <stop offset="1" stop-color="#144adf"/>
    </linearGradient>
    <linearGradient id="linear-gradient-2" x1="16" y1="19" x2="16" y2="13" xlink:href="#linear-gradient"/>
  </defs>
  <title>walletlink1</title>
  <path d="M16,0h0A16,16,0,0,1,32,16h0A16,16,0,0,1,16,32h0A16,16,0,0,1,0,16H0A16,16,0,0,1,16,0Z" fill="url(#linear-gradient)"/>
  <path d="M16,7h0a9,9,0,0,1,9,9h0a9,9,0,0,1-9,9h0a9,9,0,0,1-9-9H7A9,9,0,0,1,16,7Z" fill="#fff"/>
  <rect x="13" y="13" width="6" height="6" rx="1" ry="1" fill="url(#linear-gradient-2)"/>
</svg>
